PathFileType	4	(X/Y/Z)	Patient4_TMGait_0pt5_02_right_13.trc.trc
DataRate	CameraRate	NumFrames	NumMarkers	Units	OrigDataRate	OrigDataStartFrame	OrigNumFrames
76.086956521739	76.086956521739	4	33	mm	76.086956521739	36	       141
Frame#	Time	Sacral			L.Shoulder			Chest			R.Shoulder			Neck			R.ASIS			L.ASIS			R.Thigh.Superior			R.Thigh.Lateral			R.Thigh.Inferior			R.Patella			L.Thigh.Superior			L.Thigh.Lateral			L.Thigh.Inferior			L.Patella			L.Shank.Superior			L.Shank.Lateral			L.Shank.Inferior			R.Shank.Superior			R.Shank.Lateral			R.Shank.Inferior			R.Heel			R.Midfoot.Superior			R.Midfoot.Lateral			R.Toe			L.Heel			L.Midfoot.Lateral			L.Midfoot.Superior			L.Toe			L.Elbow			L.Wrist			R.Elbow			R.Wrist			
		X1	Y1	Z1	X2	Y2	Z2	X3	Y3	Z3	X4	Y4	Z4	X5	Y5	Z5	X6	Y6	Z6	X7	Y7	Z7	X8	Y8	Z8	X9	Y9	Z9	X10	Y10	Z10	X11	Y11	Z11	X12	Y12	Z12	X13	Y13	Z13	X14	Y14	Z14	X15	Y15	Z15	X16	Y16	Z16	X17	Y17	Z17	X18	Y18	Z18	X19	Y19	Z19	X20	Y20	Z20	X21	Y21	Z21	X22	Y22	Z22	X23	Y23	Z23	X24	Y24	Z24	X25	Y25	Z25	X26	Y26	Z26	X27	Y27	Z27	X28	Y28	Z28	X29	Y29	Z29	X30	Y30	Z30	X31	Y31	Z31	X32	Y32	Z32	X33	Y33	Z33	

36	17.470000000000	612.625590008633	1009.635969243278	494.584462186823	818.957182379074	1433.707047464288	330.316415732326	906.526726520728	1356.696822381551	496.955553833266	813.906576476755	1430.003041566632	667.271184612292	807.821809332660	1491.985044142775	482.638585910470	832.241976211214	935.919526044197	620.522594389198	831.373737823991	957.352025026145	345.844058177436	889.747961246299	747.393785976427	588.990242076939	816.909627946926	634.307431211468	647.184633094459	899.451383386595	588.258979167673	567.320724642058	908.710505887865	500.665186181864	573.508915666684	865.252693155008	739.946762832252	369.431531855124	778.471721653696	628.176252236739	302.006964390235	861.022225202841	542.133207899658	361.358992729473	852.613920428674	457.358529184432	360.465059964075	786.852192005888	398.917434328993	354.311063198874	651.268395692435	349.617853971699	299.532725871682	637.996573018436	223.762147553681	360.455584925821	889.131100823590	411.103969734495	580.775660434512	827.261143899191	302.252900320319	643.096492454328	877.033317389414	210.767152958282	579.808418409244	754.080761934462	43.118824252116	549.148855245693	924.760440878760	97.545037352562	584.107977229887	837.423633430841	36.758794138270	623.805200858651	1045.514915797068	43.997977633044	612.749945773200	447.803243910520	149.920576255436	391.528021743995	511.717756975056	106.443861438646	315.898076019864	613.617384218043	123.307967653357	341.459182876978	700.248370037740	31.443814155989	321.914121749930	826.915887891752	1080.640398095173	205.646175108811	1001.378279664915	884.845987740283	215.441474858984	716.401963199816	1091.857226342303	770.213777173320	777.767230665423	837.455802661074	760.037564682167	
37	17.483142857143	612.986791959194	1009.935397990853	498.177436509586	818.191459799199	1434.171951114806	332.843641807910	907.044054567497	1356.985793135793	498.806018820119	815.661617793428	1430.131090761886	669.993290928861	808.206967183612	1492.341295333286	485.391998031798	833.187498540096	936.579738309311	622.824942530564	831.575187188728	957.793561911506	348.232032458781	889.121925315308	746.518338402919	592.071006957626	815.318488809448	634.248083638050	649.539335513867	897.417712918107	587.773712243452	569.364559640057	906.058728517311	500.048462125525	575.099004940512	870.228630277835	742.724193626746	372.378732822979	788.056330751405	628.823049451235	303.807015669684	873.196713535728	544.713003579941	363.286099135877	866.099925352910	458.743208935479	361.805344263648	798.530796267915	400.257348271560	355.483576705813	661.266662858655	355.793262600690	300.428556638748	643.836234870372	230.048611321554	360.527428289431	885.693316521672	410.643131480572	582.045189240776	823.001170727676	302.095004951201	643.914783803887	871.924226781302	210.451400587246	580.287515912982	747.670699472095	43.218399431508	549.292534872071	918.473997716171	97.508238011396	584.317742693042	830.983232824891	36.777162734238	623.950282644650	1039.127264307002	43.597911716140	612.992052026003	450.774007399894	165.153031856786	390.362298472806	512.984766582310	118.036679956969	315.199207398923	615.765308842363	129.148645790084	341.431907905355	696.831751533913	30.737730469665	322.525548310091	822.291456140062	1080.021287999722	210.432123865382	987.507295786346	876.043729887415	219.210623341464	725.987817680110	1089.979651139137	774.967005589018	801.126794649337	839.427203509190	761.814446163317	
38	17.496285714286	613.161946619283	1010.163864087077	501.587662660637	817.246159989324	1434.423802109076	335.076458399770	907.389393907669	1357.187419786206	500.418774512041	817.183242859513	1430.224115595239	672.392051192974	808.443455428239	1492.603977637090	487.804975271879	833.872520863417	937.150884083540	625.135119818321	831.524685370249	958.042311830347	350.672328093276	888.371775097457	745.674549059833	595.239648230575	813.548906660313	634.104311535933	651.828997590370	895.344278029571	587.271404016926	571.472167685391	903.324976157239	499.424071281834	576.718879759999	874.883014414932	745.614797596943	375.412690420508	797.298488548019	629.872068250175	305.567237787348	884.694410474703	547.751788290214	365.416083315283	879.056760536833	460.722179577459	363.421579912245	810.030849844711	402.059229608323	356.764507149931	671.469831803898	361.853811425556	301.257644580409	650.333594378287	236.247780362654	360.607395548276	882.181498212836	410.153284523502	583.307119053954	818.632415601337	301.897230933373	644.676184910872	866.758040034320	210.117019840977	580.764590148323	741.195501922468	43.322659173595	549.420187524988	912.155935322734	97.430060922817	584.531195853775	824.477856000189	36.790747328596	624.080257961086	1032.676802312323	43.173170317593	613.212804898808	454.934241501790	179.229558470281	389.016116797331	515.737507654498	129.025496075409	314.361137104173	619.077667515949	135.032284957038	341.426034816741	695.163415194589	30.356940192085	323.106611763740	817.394017461908	1079.208163296370	215.005273061755	972.822145102014	867.507990859049	222.724826287109	735.830335302933	1088.300890900636	779.628666031669	824.888603822438	842.549810154526	763.440615942547	
39	17.509428571429	613.146457739282	1010.376520158376	504.797369264367	816.201724716431	1434.498810449757	337.025979564315	907.582028548393	1357.324753835946	501.823680364887	818.483133879250	1430.344898693759	674.465895294328	808.580357620697	1492.813663379204	489.869859903597	834.289417205325	937.642108065467	627.470721551685	831.156215804830	958.140482055804	353.162469579122	887.541177581676	744.927384751952	598.382802018328	811.671242425943	633.909555773346	653.991098240843	893.277303024313	586.774503929585	573.562519243666	900.551873825192	498.803827209037	578.294148883276	879.114862610093	748.633532066627	378.534375161462	806.040797797494	631.353348628092	307.307050580954	895.355944102286	551.233607726083	367.737571698781	891.320403507458	463.288340641109	365.267076069245	821.217063640865	404.310176875128	358.131478799093	681.737368603739	367.589790370563	302.030473576315	657.553569459596	242.073620587736	360.683675082804	878.635546047070	409.651910031521	584.512886648196	814.211012110567	301.690506987422	645.381417701761	861.551393397185	209.778978605084	581.220102780575	734.661719366639	43.433156759667	549.541088259660	905.801479128139	97.329020030747	584.740497976568	817.918174407532	36.805390277932	624.199395648080	1026.171849599939	42.751389519981	613.412745293475	460.371678115330	191.413694214280	387.561946972439	520.158848886124	138.813522493489	313.405906777629	623.786744009113	140.634139719972	341.381282176902	695.768317737249	30.376871198826	323.544875818107	812.230818463990	1078.272232248908	219.346081470402	957.366711996662	859.370921644720	225.969110151145	745.940902738258	1086.886122430277	784.109008980084	848.929194431493	846.943800790958	764.839756382078	
